<svg xmlns="http://www.w3.org/2000/svg" xmlns:xlink="http://www.w3.org/1999/xlink" xmlns:lucid="lucid" width="715.56" height="1250"><g transform="translate(-180 -430)" lucid:page-tab-id="EMU7VncySqRwp"><path d="M0 0h1360v1760H0z" fill="#fff"/><path d="M280 529.73a.27.27 0 0 0 .27.27h159.46a.27.27 0 0 0 .27-.27v-79.46a.27.27 0 0 0-.27-.27H280.27a.27.27 0 0 0-.27.27z" stroke="#000" stroke-width=".53" fill-opacity="0"/><use xlink:href="#a" transform="matrix(1,0,0,1,288.96,458.88) translate(53.6158203125 35.945)"/><path d="M600 759.73a.27.27 0 0 0 .27.27h159.46a.27.27 0 0 0 .27-.27v-79.46a.27.27 0 0 0-.27-.27H600.27a.27.27 0 0 0-.27.27z" stroke="#000" stroke-width=".53" fill-opacity="0"/><use xlink:href="#b" transform="matrix(1,0,0,1,608.96,688.88) translate(52.19203125 35.945)"/><path d="M280 1439.73a.27.27 0 0 0 .27.27h159.46a.27.27 0 0 0 .27-.27v-79.46a.27.27 0 0 0-.27-.27H280.27a.27.27 0 0 0-.27.27z" stroke="#000" stroke-width=".53" fill-opacity="0"/><use xlink:href="#c" transform="matrix(1,0,0,1,288.96,1368.88) translate(57.2838134765625 35.945)"/><path d="M280 739.73a.27.27 0 0 0 .27.27h159.46a.27.27 0 0 0 .27-.27v-79.46a.27.27 0 0 0-.27-.27H280.27a.27.27 0 0 0-.27.27z" stroke="#000" stroke-width=".53" fill-opacity="0"/><use xlink:href="#d" transform="matrix(1,0,0,1,288.96,668.88) translate(56.784619140625 35.945)"/><path d="M280 1219.73a.27.27 0 0 0 .27.27h159.46a.27.27 0 0 0 .27-.27v-79.46a.27.27 0 0 0-.27-.27H280.27a.27.27 0 0 0-.27.27z" stroke="#000" stroke-width=".53" fill-opacity="0"/><use xlink:href="#e" transform="matrix(1,0,0,1,288.96,1148.88) translate(56.784619140625 35.945)"/><path d="M600 1239.73a.27.27 0 0 0 .27.27h159.46a.27.27 0 0 0 .27-.27v-79.46a.27.27 0 0 0-.27-.27H600.27a.27.27 0 0 0-.27.27z" stroke="#000" stroke-width=".53" fill-opacity="0"/><use xlink:href="#f" transform="matrix(1,0,0,1,608.96,1168.88) translate(52.19203125 35.945)"/><path d="M280 1659.73a.27.27 0 0 0 .27.27h159.46a.27.27 0 0 0 .27-.27v-79.46a.27.27 0 0 0-.27-.27H280.27a.27.27 0 0 0-.27.27z" stroke="#000" stroke-width=".53" fill-opacity="0"/><use xlink:href="#g" transform="matrix(1,0,0,1,288.96,1588.88) translate(31.2475732421875 35.945)"/><path d="M360 1440.27v139.25M360 1440.27v-.27M349.82 1562.26l10.18 17.22 10.18-17.22M330 1508l23.76 11.88a.38.38 0 0 0 .43-.07l10.9-10.85a.4.4 0 0 1 .43-.08L390 1520" stroke="#000" stroke-width=".53" fill="none"/><path d="M835.56 680v720h40V680z" stroke="#000" stroke-opacity="0" stroke-width=".53" fill="#bfbfbf"/><use xlink:href="#h" transform="matrix(-0.0000036732051033465735,0.9999999999932537,-0.9999999999932537,-0.0000036732051033465735,866.6772906172698,688.640040848411) translate(289.7770703125 15.945)"/><use xlink:href="#i" transform="matrix(-0.0000036732051033465735,0.9999999999932537,-0.9999999999932537,-0.0000036732051033465735,866.6772906172698,688.640040848411) translate(365.038212890625 15.945)"/><path d="M700 1620c0-11.13-8.96-20.15-20-20.15s-20 9.02-20 20.15c0 11.13 8.96 20.16 20 20.16s20-9.03 20-20.16z" stroke="#000" stroke-width=".53" fill-opacity="0"/><path d="M680 1240.26v359.1M680 1240.27v-.27M669.82 1582.1l10.18 17.22 10.18-17.2M650 1508l23.76 11.88a.38.38 0 0 0 .43-.07l10.9-10.85a.4.4 0 0 1 .43-.08L710 1520M360 1220.27v139.25M360 1220.27v-.27M349.82 1342.26l10.18 17.22 10.18-17.22M680 760.26v359.26M680 760.27V760M669.82 1102.26l10.18 17.22 10.18-17.22M440.26 705.02l159.26 14.94M440.27 705.03L440 705M581.4 728.48l18.08-8.53-16.2-11.74M440.26 1180.03l159.26 19.9M440.27 1180.03l-.27-.03M581.14 1207.9l18.34-7.96-15.82-12.24M360 530.26v129.26M360 530.27V530M349.82 642.26L360 659.48l10.18-17.22" stroke="#000" stroke-width=".53" fill="none"/><path d="M224.44 577.22H360v35.56H224.44z" stroke="#000" stroke-opacity="0" stroke-width="1.67" fill-opacity="0"/><use xlink:href="#j" transform="matrix(1,0,0,1,233.39069599999996,586.111) translate(7.647666015624992 13.445)"/><use xlink:href="#k" transform="matrix(1,0,0,1,233.39069599999996,586.111) translate(69.6953515625 13.445)"/><path d="M224.44 1272.22H360v35.56H224.44z" stroke="#000" stroke-opacity="0" stroke-width="1.67" fill-opacity="0"/><use xlink:href="#l" transform="matrix(1,0,0,1,233.39069599999996,1281.1109999999999) translate(44.197373046875 13.445)"/><use xlink:href="#m" transform="matrix(1,0,0,1,233.39069599999996,1281.1109999999999) translate(76.649345703125 13.445)"/><path d="M452.22 1140h135.56v35.56H452.22z" stroke="#000" stroke-opacity="0" stroke-width="1.67" fill-opacity="0"/><use xlink:href="#n" transform="matrix(1,0,0,1,461.16869599999995,1148.8890000000001) translate(14.7366552734375 13.445)"/><use xlink:href="#o" transform="matrix(1,0,0,1,461.16869599999995,1148.8890000000001) translate(48.3606494140625 13.445)"/><path d="M452.22 660h135.56v35.56H452.22z" stroke="#000" stroke-opacity="0" stroke-width="1.67" fill-opacity="0"/><use xlink:href="#n" transform="matrix(1,0,0,1,461.16869599999995,668.889) translate(14.7366552734375 13.445)"/><use xlink:href="#o" transform="matrix(1,0,0,1,461.16869599999995,668.889) translate(48.3606494140625 13.445)"/><path d="M440.26 1400h2.6m2.62 0h5.22m2.6 0h5.22m2.6 0h5.23m2.6 0h5.22m2.6 0H482m2.6 0h5.22m2.6 0h5.22m2.6 0h5.23m2.6 0h5.22m2.6 0h5.22m2.6 0h5.22m2.6 0h5.23m2.6 0h5.22m2.6 0h5.22m2.6 0h5.22m2.6 0h5.23m2.6 0h5.22m2.6 0h5.2m2.62 0h5.22m2.6 0h5.22m2.6 0h5.23m2.6 0h5.2m2.62 0h5.22m2.6 0h5.22m2.6 0h5.23m2.6 0h5.2m2.62 0h5.2m2.62 0h5.22m2.6 0h5.22m2.6 0H675l.8-2.45m1.83-1.72l.8-.58 1.57-.25 2.45.8m1.72 1.83l.58.8.25 1.57h2.68m2.67 0h5.36m2.7 0h5.34m2.68 0h5.35m2.68 0h5.36m2.68 0h5.36m2.67 0h5.37m2.68 0h5.35m2.68 0h5.35m2.68 0h5.36m2.68 0H768m2.67 0h5.36m2.68 0h5.36m2.68 0h5.35m2.67 0h5.35m2.68 0h5.36m2.67 0h5.36m2.67 0h5.35m2.68 0h5.35m2.68 0h5.35m2.68 0h5.36m2.67 0h5.35m2.68 0h5.35m2.68 0h2.68M440.27 1400H440M869.73 1400h.27" stroke="#000" stroke-width=".53" fill="none"/><path d="M280 999.73a.27.27 0 0 0 .27.27h159.46a.27.27 0 0 0 .27-.27v-79.46a.27.27 0 0 0-.27-.27H280.27a.27.27 0 0 0-.27.27z" stroke="#000" stroke-width=".53" fill-opacity="0"/><use xlink:href="#p" transform="matrix(1,0,0,1,288.96,928.88) translate(53.6158203125 35.945)"/><path d="M360 740.26v179.26M360 740.27V740M349.82 902.26L360 919.48l10.18-17.22M360 1000.26v139.26M360 1000.27v-.27M349.82 1122.26l10.18 17.22 10.18-17.22" stroke="#000" stroke-width=".53" fill="none"/><path d="M212.22 1052.22h135.56v35.56H212.22z" stroke="#000" stroke-opacity="0" stroke-width="1.67" fill-opacity="0"/><use xlink:href="#j" transform="matrix(1,0,0,1,221.16869599999998,1061.1109999999999) translate(7.647666015624992 13.445)"/><use xlink:href="#k" transform="matrix(1,0,0,1,221.16869599999998,1061.1109999999999) translate(69.6953515625 13.445)"/><path d="M692.22 1602.22h135.56v35.56H692.22z" stroke="#000" stroke-opacity="0" stroke-width="1.67" fill-opacity="0"/><use xlink:href="#q" transform="matrix(1,0,0,1,701.168696,1611.1109999999999) translate(15.570092773437501 13.445)"/><path d="M200 860h150v35.56H200z" stroke="#000" stroke-opacity="0" stroke-width="1.67" fill-opacity="0"/><use xlink:href="#r" transform="matrix(1,0,0,1,208.85,868.889) translate(46.704492187499994 2.7769999999999975)"/><use xlink:href="#s" transform="matrix(1,0,0,1,208.85,868.889) translate(117.84185546875 2.7769999999999975)"/><use xlink:href="#t" transform="matrix(1,0,0,1,208.85,868.889) translate(32.7444140625 24.113)"/><use xlink:href="#u" transform="matrix(1,0,0,1,208.85,868.889) translate(87.81206054687499 24.113)"/><path d="M650 820l23.76 11.88a.38.38 0 0 0 .43-.07l10.9-10.85a.4.4 0 0 1 .43-.08L710 832M330 820l23.76 11.88a.38.38 0 0 0 .43-.07l10.9-10.85a.4.4 0 0 1 .43-.08L390 832" stroke="#000" stroke-width=".53" fill="none"/><path d="M700 1139.85c0-11.13-8.96-20.16-20-20.16s-20 9.02-20 20.14c0 11.13 8.96 20.16 20 20.16s20-9.03 20-20.15z" stroke="#000" stroke-width=".53" fill-opacity="0"/><path d="M684.44 1122.07H820v35.55H684.44z" stroke="#000" stroke-opacity="0" stroke-width="1.67" fill-opacity="0"/><g><use xlink:href="#q" transform="matrix(1,0,0,1,693.3906959999999,1130.955) translate(15.570092773437501 13.445)"/></g><defs><path d="M12-1314c77 9 194-28 214 42l255 907c9 32 18 69 26 112 8-39 17-78 28-113l293-905c10-59 158-61 176-1 97 321 208 636 308 958 5 18 9 38 13 58 8-37 15-76 25-109l254-906c17-65 129-37 206-43L1411 0h-165c-111-354-226-705-335-1062-5 24-11 46-18 66L575 0H411" id="v"/><path d="M1148-926c58 156 58 382 0 538C1064-162 892 0 593 0H139v-1314h454c298 6 472 162 555 388zM976-442c38-121 39-309 0-430-55-171-167-295-383-295H322v1020c157-7 329 19 441-35 105-50 176-139 213-260" id="w"/><path d="M255-128h273c2-322-4-651 3-968L308-900c-25 26-63 14-78-6l-53-73 383-339h136v1190h250V0H255v-128" id="x"/><g id="a"><use transform="matrix(0.008681640625,0,0,0.008681640625,0,0)" xlink:href="#v"/><use transform="matrix(0.008681640625,0,0,0.008681640625,15.817949218750002,0)" xlink:href="#w"/><use transform="matrix(0.008681640625,0,0,0.008681640625,26.756816406250003,0)" xlink:href="#x"/></g><path d="M994-906c0 279-183 411-470 416H329V0H147v-1314h377c290 3 470 124 470 408zm-182 0c0-176-103-265-288-265H329v537h195c180-4 288-94 288-272" id="y"/><path d="M1052-184C961-66 832 17 628 14c-289-4-447-172-522-398-53-160-53-388 3-546 81-226 241-394 534-399 180-3 301 72 392 167-25 33-46 70-75 99-51 21-73-33-114-51-77-60-256-80-362-23-152 81-231 248-231 480 0 233 83 400 235 481 113 60 301 37 376-30 33-15 74-101 116-56" id="z"/><g id="b"><use transform="matrix(0.008681640625,0,0,0.008681640625,0,0)" xlink:href="#y"/><use transform="matrix(0.008681640625,0,0,0.008681640625,9.18517578125,0)" xlink:href="#z"/><use transform="matrix(0.008681640625,0,0,0.008681640625,18.66552734375,0)" xlink:href="#w"/><use transform="matrix(0.008681640625,0,0,0.008681640625,29.60439453125,0)" xlink:href="#x"/></g><path d="M882-1314v148H321v455h477v148H321V0H138v-1314h744" id="A"/><g id="c"><use transform="matrix(0.008681640625,0,0,0.008681640625,0,0)" xlink:href="#A"/><use transform="matrix(0.008681640625,0,0,0.008681640625,8.013154296875,0)" xlink:href="#z"/><use transform="matrix(0.008681640625,0,0,0.008681640625,17.493505859375,0)" xlink:href="#w"/></g><g id="d"><use transform="matrix(0.008681640625,0,0,0.008681640625,0,0)" xlink:href="#z"/><use transform="matrix(0.008681640625,0,0,0.008681640625,9.480351562500001,0)" xlink:href="#w"/><use transform="matrix(0.008681640625,0,0,0.008681640625,20.419218750000002,0)" xlink:href="#x"/></g><path d="M118-957c35-227 168-372 421-372 237 0 388 129 388 367 0 234-144 350-265 476L325-135c155-43 377-15 567-23 76-4 57 87 59 158H92c-1-54 1-99 31-129 169-170 344-341 501-522 70-81 131-166 131-307 0-146-81-228-225-228-138 0-213 81-243 193-11 42-31 58-82 50" id="B"/><g id="e"><use transform="matrix(0.008681640625,0,0,0.008681640625,0,0)" xlink:href="#z"/><use transform="matrix(0.008681640625,0,0,0.008681640625,9.480351562500001,0)" xlink:href="#w"/><use transform="matrix(0.008681640625,0,0,0.008681640625,20.419218750000002,0)" xlink:href="#B"/></g><g id="f"><use transform="matrix(0.008681640625,0,0,0.008681640625,0,0)" xlink:href="#y"/><use transform="matrix(0.008681640625,0,0,0.008681640625,9.18517578125,0)" xlink:href="#z"/><use transform="matrix(0.008681640625,0,0,0.008681640625,18.66552734375,0)" xlink:href="#w"/><use transform="matrix(0.008681640625,0,0,0.008681640625,29.60439453125,0)" xlink:href="#B"/></g><path d="M450 15c-223 0-325-146-325-370v-623h176v623c0 141 61 233 200 231 119-1 195-63 259-133v-721h176V0c-55-7-141 23-150-36l-16-104C692-57 602 15 450 15" id="C"/><path d="M586 14c-139 0-211-58-275-138-12 47 7 124-53 124H144v-1422h176v583c74-85 165-154 314-154 264 0 368 206 368 479 0 238-85 409-243 490-51 25-109 38-173 38zm235-522c0-208-63-346-246-346-127 0-194 66-255 146v472c53 73 113 114 222 114 204 0 279-159 279-386" id="D"/><path d="M323-1422V0H147v-1422h176" id="E"/><path d="M323-978V0H147v-978h176zm-91-431c74 0 125 50 125 125 0 74-52 123-125 123s-122-50-122-123c0-74 48-125 122-125" id="F"/><path d="M69-490c0-299 140-503 438-503 143 0 234 53 308 127-20 26-37 58-61 80-40 18-64-17-93-32-37-19-81-40-143-39-201 7-269 160-269 367 0 204 66 360 261 368 96 4 149-38 198-81 21-19 50-20 67 2l51 64C751-46 640 14 479 14 199 14 69-199 69-490" id="G"/><path d="M514-995c228 0 341 142 341 370V0c-56-5-123 17-137-41l-22-91C610-53 522 18 358 15 189 12 84-73 84-244c0-178 154-235 319-276 76-19 169-27 280-30 12-176-30-304-190-304-107 0-171 42-231 86-34 25-81 14-98-16l-32-56c98-93 207-155 382-155zM253-253c0 98 61 145 158 145 133 0 205-61 272-130v-202c-134 6-246 19-333 58-57 26-97 59-97 129" id="H"/><path d="M650-73c-53 51-136 87-233 88-153 0-235-95-235-251v-596c-55-8-148 24-148-39v-70l154-20 41-301c4-50 80-28 129-33v335h269v128H358v584c-2 72 34 118 99 120 56 2 78-32 116-46 15 0 19 7 25 17" id="I"/><path d="M75-490c0-310 160-503 466-503s464 194 464 503c0 310-158 504-464 504C234 14 75-180 75-490zm181 1c0 215 74 366 285 366 210 0 283-152 283-366s-74-367-283-367c-211 0-285 152-285 367" id="J"/><path d="M575-854c-119 2-197 63-259 134V0H140v-978c55 7 141-23 150 36l15 104c78-83 170-155 321-155 223 0 325 146 325 370V0H775v-623c0-140-61-233-200-231" id="K"/><g id="g"><use transform="matrix(0.008681640625,0,0,0.008681640625,0,0)" xlink:href="#y"/><use transform="matrix(0.008681640625,0,0,0.008681640625,9.18517578125,0)" xlink:href="#C"/><use transform="matrix(0.008681640625,0,0,0.008681640625,18.526621093750002,0)" xlink:href="#D"/><use transform="matrix(0.008681640625,0,0,0.008681640625,27.86806640625,0)" xlink:href="#E"/><use transform="matrix(0.008681640625,0,0,0.008681640625,31.9484375,0)" xlink:href="#F"/><use transform="matrix(0.008681640625,0,0,0.008681640625,36.02880859375,0)" xlink:href="#G"/><use transform="matrix(0.008681640625,0,0,0.008681640625,43.399521484375,0)" xlink:href="#H"/><use transform="matrix(0.008681640625,0,0,0.008681640625,51.751259765624994,0)" xlink:href="#I"/><use transform="matrix(0.008681640625,0,0,0.008681640625,57.706865234374995,0)" xlink:href="#F"/><use transform="matrix(0.008681640625,0,0,0.008681640625,61.787236328125,0)" xlink:href="#J"/><use transform="matrix(0.008681640625,0,0,0.008681640625,71.163408203125,0)" xlink:href="#K"/></g><path d="M545-854c-104 0-170 61-222 126V0H147v-978c54 8 140-23 149 36l15 100c68-77 143-150 284-151 143-1 221 88 255 203 52-123 153-201 320-203 220-2 335 143 335 370V0h-176v-623c1-143-65-231-201-231-139 0-216 89-216 231V0H736v-623c1-145-55-231-191-231" id="L"/><path d="M544 14C232 14 75-190 75-509c0-226 105-376 267-447 57-25 122-37 193-37 265 0 410 167 410 437 0 47-2 68-42 68H249c7 217 94 359 310 364 110 2 183-39 248-80 70-44 93 39 123 67C847-42 716 14 544 14zm243-610c-5-164-86-266-249-269-173-3-262 113-284 269h533" id="M"/><g id="h"><use transform="matrix(0.008681640625,0,0,0.008681640625,0,0)" xlink:href="#z"/><use transform="matrix(0.008681640625,0,0,0.008681640625,9.480351562500001,0)" xlink:href="#J"/><use transform="matrix(0.008681640625,0,0,0.008681640625,18.8565234375,0)" xlink:href="#L"/><use transform="matrix(0.008681640625,0,0,0.008681640625,33.0596875,0)" xlink:href="#L"/><use transform="matrix(0.008681640625,0,0,0.008681640625,47.2628515625,0)" xlink:href="#M"/><use transform="matrix(0.008681640625,0,0,0.008681640625,56.10944335937501,0)" xlink:href="#K"/><use transform="matrix(0.008681640625,0,0,0.008681640625,65.2859375,0)" xlink:href="#I"/></g><path d="M581 14c-127 0-201-47-264-114v430H141V-978c55 7 141-23 150 36l17 114c76-89 171-167 326-167 271 0 368 217 368 499 0 229-91 393-245 471-52 26-111 39-176 39zm240-510c-2-202-50-358-245-358-128 0-197 66-259 146v472c53 73 114 114 225 114 198 0 281-159 279-374" id="N"/><path d="M536-823c-141 7-187 99-229 205V0H131v-978c60 8 148-26 154 48l12 144c58-123 149-234 328-202 18 3 34 11 49 21l-14 130c-12 52-78 12-124 14" id="O"/><path d="M492-995c127 0 201 45 264 114v-541h176V0c-55-7-141 23-150-36l-18-117C688-64 595 14 440 14 170 14 74-204 74-486c0-228 88-392 242-470 52-26 111-39 176-39zM255-486c2 201 49 359 242 359 130 0 195-67 259-146v-473c-54-73-114-114-224-114-197 0-279 159-277 374" id="P"/><g id="i"><use transform="matrix(0.008681640625,0,0,0.008681640625,0,0)" xlink:href="#N"/><use transform="matrix(0.008681640625,0,0,0.008681640625,9.341445312500001,0)" xlink:href="#M"/><use transform="matrix(0.008681640625,0,0,0.008681640625,18.188037109375003,0)" xlink:href="#O"/><use transform="matrix(0.008681640625,0,0,0.008681640625,24.386728515625002,0)" xlink:href="#F"/><use transform="matrix(0.008681640625,0,0,0.008681640625,28.467099609375,0)" xlink:href="#J"/><use transform="matrix(0.008681640625,0,0,0.008681640625,37.843271484375,0)" xlink:href="#P"/></g><path d="M75-653h478v149H75v-149" id="Q"/><g id="j"><use transform="matrix(0.008681640625,0,0,0.008681640625,0,0)" xlink:href="#N"/><use transform="matrix(0.008681640625,0,0,0.008681640625,9.341445312500001,0)" xlink:href="#O"/><use transform="matrix(0.008681640625,0,0,0.008681640625,15.305732421875,0)" xlink:href="#M"/><use transform="matrix(0.008681640625,0,0,0.008681640625,24.152324218750003,0)" xlink:href="#Q"/><use transform="matrix(0.008681640625,0,0,0.008681640625,29.595712890625002,0)" xlink:href="#A"/><use transform="matrix(0.008681640625,0,0,0.008681640625,37.6088671875,0)" xlink:href="#z"/><use transform="matrix(0.008681640625,0,0,0.008681640625,47.08921875,0)" xlink:href="#w"/></g><path d="M542 0H383L19-978h145c26-1 46 18 53 36 77 231 156 461 231 694 7 22 12 44 17 67 10-48 25-91 40-135l212-626c18-58 121-29 189-36" id="R"/><path d="M21-978c68 8 173-25 191 37 66 230 131 458 192 691 6 21 9 43 12 64 75-256 159-506 233-760 13-43 73-33 125-34 27 0 43 14 50 34 75 254 156 502 227 760 7-43 18-87 31-132l179-624c15-59 116-29 182-36L1136 0H996c-17 0-28-11-35-33-73-235-147-469-219-705-4-15-7-30-10-45-7 32-14 62-23 92L501-33C485 26 391-10 329 0" id="S"/><g id="k"><use transform="matrix(0.008681640625,0,0,0.008681640625,0,0)" xlink:href="#O"/><use transform="matrix(0.008681640625,0,0,0.008681640625,5.964287109375,0)" xlink:href="#M"/><use transform="matrix(0.008681640625,0,0,0.008681640625,14.7240625,0)" xlink:href="#R"/><use transform="matrix(0.008681640625,0,0,0.008681640625,22.754580078125002,0)" xlink:href="#F"/><use transform="matrix(0.008681640625,0,0,0.008681640625,26.834951171875,0)" xlink:href="#M"/><use transform="matrix(0.008681640625,0,0,0.008681640625,35.5947265625,0)" xlink:href="#S"/></g><g id="l"><use transform="matrix(0.008681640625,0,0,0.008681640625,0,0)" xlink:href="#A"/><use transform="matrix(0.008681640625,0,0,0.008681640625,8.013154296875,0)" xlink:href="#z"/><use transform="matrix(0.008681640625,0,0,0.008681640625,17.493505859375,0)" xlink:href="#w"/></g><g id="m"><use transform="matrix(0.008681640625,0,0,0.008681640625,0,0)" xlink:href="#D"/><use transform="matrix(0.008681640625,0,0,0.008681640625,9.341445312500001,0)" xlink:href="#H"/><use transform="matrix(0.008681640625,0,0,0.008681640625,17.858134765625007,0)" xlink:href="#E"/><use transform="matrix(0.008681640625,0,0,0.008681640625,21.938505859375002,0)" xlink:href="#E"/><use transform="matrix(0.008681640625,0,0,0.008681640625,26.018876953125,0)" xlink:href="#J"/><use transform="matrix(0.008681640625,0,0,0.008681640625,35.395048828125,0)" xlink:href="#I"/></g><g id="n"><use transform="matrix(0.008681640625,0,0,0.008681640625,0,0)" xlink:href="#y"/><use transform="matrix(0.008681640625,0,0,0.008681640625,9.18517578125,0)" xlink:href="#z"/><use transform="matrix(0.008681640625,0,0,0.008681640625,18.66552734375,0)" xlink:href="#w"/></g><path d="M95-709c0-188 136-281 332-284 128-2 226 47 291 114-25 33-46 112-108 74-47-29-100-60-179-58-97 2-169 47-169 140 0 121 140 131 235 168 118 46 235 94 235 255C732-91 595 11 381 15 247 17 139-38 70-104c26-39 56-126 124-80 51 35 104 76 195 74 109-2 179-54 179-159 0-126-138-136-236-173C209-488 95-543 95-709" id="T"/><g id="o"><use transform="matrix(0.008681640625,0,0,0.008681640625,0,0)" xlink:href="#N"/><use transform="matrix(0.008681640625,0,0,0.008681640625,9.341445312500001,0)" xlink:href="#O"/><use transform="matrix(0.008681640625,0,0,0.008681640625,15.253642578125,0)" xlink:href="#J"/><use transform="matrix(0.008681640625,0,0,0.008681640625,24.629814453125,0)" xlink:href="#G"/><use transform="matrix(0.008681640625,0,0,0.008681640625,32.148115234375,0)" xlink:href="#M"/><use transform="matrix(0.008681640625,0,0,0.008681640625,40.99470703125,0)" xlink:href="#T"/><use transform="matrix(0.008681640625,0,0,0.008681640625,47.948701171875,0)" xlink:href="#T"/></g><g id="p"><use transform="matrix(0.008681640625,0,0,0.008681640625,0,0)" xlink:href="#v"/><use transform="matrix(0.008681640625,0,0,0.008681640625,15.817949218750002,0)" xlink:href="#w"/><use transform="matrix(0.008681640625,0,0,0.008681640625,26.756816406250003,0)" xlink:href="#B"/></g><path d="M974-1314v152H591V0H408v-1162H24v-152h950" id="U"/><g id="q"><use transform="matrix(0.008681640625,0,0,0.008681640625,0,0)" xlink:href="#U"/><use transform="matrix(0.008681640625,0,0,0.008681640625,7.084218750000002,0)" xlink:href="#M"/><use transform="matrix(0.008681640625,0,0,0.008681640625,15.930810546875001,0)" xlink:href="#O"/><use transform="matrix(0.008681640625,0,0,0.008681640625,22.129501953125,0)" xlink:href="#L"/><use transform="matrix(0.008681640625,0,0,0.008681640625,36.332666015625,0)" xlink:href="#F"/><use transform="matrix(0.008681640625,0,0,0.008681640625,40.413037109375004,0)" xlink:href="#K"/><use transform="matrix(0.008681640625,0,0,0.008681640625,49.754482421875004,0)" xlink:href="#H"/><use transform="matrix(0.008681640625,0,0,0.008681640625,58.106220703125004,0)" xlink:href="#I"/><use transform="matrix(0.008681640625,0,0,0.008681640625,64.061826171875,0)" xlink:href="#F"/><use transform="matrix(0.008681640625,0,0,0.008681640625,68.142197265625,0)" xlink:href="#J"/><use transform="matrix(0.008681640625,0,0,0.008681640625,77.51836914062501,0)" xlink:href="#K"/></g><path d="M969-949c0 213-127 324-301 372 24 16 43 33 61 57L1082 0c-87-8-195 23-235-37L536-505c-21-29-36-41-85-41H329V0H147v-1314h360c275 2 462 97 462 365zM500-679c179-3 292-82 292-257 0-157-95-235-285-235H329v492h171" id="V"/><g id="r"><use transform="matrix(0.008681640625,0,0,0.008681640625,0,0)" xlink:href="#V"/><use transform="matrix(0.008681640625,0,0,0.008681640625,9.3414453125,0)" xlink:href="#M"/><use transform="matrix(0.008681640625,0,0,0.008681640625,18.0925390625,0)" xlink:href="#I"/><use transform="matrix(0.008681640625,0,0,0.008681640625,24.04814453125,0)" xlink:href="#C"/><use transform="matrix(0.008681640625,0,0,0.008681640625,33.38958984375,0)" xlink:href="#O"/><use transform="matrix(0.008681640625,0,0,0.008681640625,39.58828125,0)" xlink:href="#K"/><use transform="matrix(0.008681640625,0,0,0.008681640625,48.9297265625,0)" xlink:href="#M"/><use transform="matrix(0.008681640625,0,0,0.008681640625,57.776318359375,0)" xlink:href="#P"/></g><g id="s"><use transform="matrix(0.008681640625,0,0,0.008681640625,0,0)" xlink:href="#I"/><use transform="matrix(0.008681640625,0,0,0.008681640625,5.78197265625,0)" xlink:href="#J"/></g><path d="M-30 219c127 8 194-23 194-148V-978h176V71c0 200-130 299-342 275-18-3-35-7-53-14 5-35 5-77 15-108 2-3 5-4 10-5zm281-1628c74 0 125 50 125 125 0 74-52 123-125 123s-122-50-122-123c0-74 48-125 122-125" id="W"/><g id="t"><use transform="matrix(0.008681640625,0,0,0.008681640625,0,0)" xlink:href="#y"/><use transform="matrix(0.008681640625,0,0,0.008681640625,9.18517578125,0)" xlink:href="#O"/><use transform="matrix(0.008681640625,0,0,0.008681640625,15.097373046875,0)" xlink:href="#J"/><use transform="matrix(0.008681640625,0,0,0.008681640625,24.473544921875,0)" xlink:href="#W"/><use transform="matrix(0.008681640625,0,0,0.008681640625,28.727548828125002,0)" xlink:href="#M"/><use transform="matrix(0.008681640625,0,0,0.008681640625,37.57414062499999,0)" xlink:href="#G"/><use transform="matrix(0.008681640625,0,0,0.008681640625,45.092441406249996,0)" xlink:href="#I"/></g><path d="M1185-127C1068-41 935 14 745 14c-326 0-527-159-621-398-63-159-60-385-2-546 98-271 362-446 744-388 132 20 229 80 308 155l-51 82c-30 54-91 8-125-15-70-46-159-79-279-76-306 8-456 204-456 515 0 322 159 524 477 524 121 0 198-31 280-74v-288H831c-62 2-34-84-40-138h394v506" id="X"/><g id="u"><use transform="matrix(0.008681640625,0,0,0.008681640625,0,0)" xlink:href="#X"/><use transform="matrix(0.008681640625,0,0,0.008681640625,11.216679687500001,0)" xlink:href="#O"/><use transform="matrix(0.008681640625,0,0,0.008681640625,17.128876953125,0)" xlink:href="#J"/><use transform="matrix(0.008681640625,0,0,0.008681640625,26.505048828125002,0)" xlink:href="#C"/><use transform="matrix(0.008681640625,0,0,0.008681640625,35.846494140625005,0)" xlink:href="#N"/></g></defs></g></svg>